<svg xmlns="http://www.w3.org/2000/svg" viewBox="0 0 100 100">
  <rect width="100" height="100" fill="#050403"/>
  <path d="M50 12 C38 32 26 38 32 58 C36 70 44 76 50 76 C56 76 64 70 68 58 C74 38 62 32 50 12Z" fill="#8b3a00"/>
  <path d="M50 28 C42 42 36 46 40 58 C42 66 46 70 50 70 C54 70 58 66 60 58 C64 46 58 42 50 28Z" fill="#c07000"/>
  <path d="M50 44 C46 52 44 55 46 61 C47 65 49 67 50 67 C51 67 53 65 54 61 C56 55 54 52 50 44Z" fill="#ffcc44"/>
  <rect x="28" y="78" width="44" height="7" rx="3" fill="#4a2e12"/>
  <rect x="22" y="82" width="56" height="5" rx="2" fill="#2a180a"/>
  <rect x="35" y="73" width="5" height="10" rx="1" fill="#3a2010" transform="rotate(-15 37.5 78)"/>
  <rect x="60" y="73" width="5" height="10" rx="1" fill="#3a2010" transform="rotate(15 62.5 78)"/>
</svg>
